<?xml version="1.0" encoding="utf-8"?>
<!-- Generator: Adobe Illustrator 22.1.0, SVG Export Plug-In . SVG Version: 6.00 Build 0)  -->
<svg version="1.1" id="Capa_1" xmlns="http://www.w3.org/2000/svg" xmlns:xlink="http://www.w3.org/1999/xlink" x="0px" y="0px"
	 viewBox="0 0 512 512" style="enable-background:new 0 0 512 512;" xml:space="preserve">
<style type="text/css">
	.st0{fill:none;}
	.st1{fill:url(#SVGID_1_);}
</style>
<g>
	<path class="st0" d="M497.6,191.3L296.5,410.7c-10.5,11.4-25.1,17.8-40.5,17.8s-29.9-6.6-40.5-17.8L14.4,191.3h0.2
		C5.5,181.5,0,168.7,0,154.3c0-30.2,24.7-54.9,54.9-54.9c16,0,30.2,6.9,40.2,17.8h0.2L256,292.6l160.7-175.3h0.2
		c10.1-11,24.2-17.8,40.2-17.8c30.2,0,54.9,24.7,54.9,54.9c0,14.4-5.7,27.2-14.6,37H497.6z"/>
	
		<linearGradient id="SVGID_1_" gradientUnits="userSpaceOnUse" x1="256" y1="-318.8571" x2="256" y2="851.4286" gradientTransform="matrix(1 0 0 -1 0 512)">
		<stop  offset="0" style="stop-color:#F857A5"/>
		<stop  offset="1" style="stop-color:#FF5859"/>
	</linearGradient>
	<path class="st1" d="M457.1,99.4c-16,0-30.2,6.9-40.2,17.8h-0.2L256,292.6L95.3,117.3h-0.2c-10.1-11-24.2-17.8-40.2-17.8
		C24.7,99.4,0,124.1,0,154.3c0,14.4,5.5,27.2,14.6,37h-0.2l201.1,219.4c10.5,11.2,25.1,17.8,40.5,17.8s29.9-6.4,40.5-17.8
		l201.1-219.4h-0.2c8.9-9.8,14.6-22.6,14.6-37C512,124.1,487.3,99.4,457.1,99.4z"/>
</g>
</svg>
