<?xml version="1.0" encoding="utf-8"?>
<!-- Generator: Adobe Illustrator 22.1.0, SVG Export Plug-In . SVG Version: 6.00 Build 0)  -->
<svg version="1.1" id="Calque_1" xmlns="http://www.w3.org/2000/svg" xmlns:xlink="http://www.w3.org/1999/xlink" x="0px" y="0px"
	 viewBox="0 0 32 32" style="enable-background:new 0 0 32 32;" xml:space="preserve">
<style type="text/css">
	.st0{fill:url(#SVGID_1_);}
	.st1{fill:url(#SVGID_2_);}
	.st2{fill:url(#SVGID_3_);}
	.st3{fill:url(#SVGID_4_);}
</style>
<g>
	<linearGradient id="SVGID_1_" gradientUnits="userSpaceOnUse" x1="20.5425" y1="12.977" x2="20.5425" y2="9.948">
		<stop  offset="0" style="stop-color:#F857A5"/>
		<stop  offset="1" style="stop-color:#FF5859"/>
	</linearGradient>
	<path class="st0" d="M21.6,9.9h-2c-0.3,0-0.5,0.2-0.5,0.5v2c0,0.3,0.2,0.5,0.5,0.5h2c0.3,0,0.5-0.2,0.5-0.5v-2
		C22.1,10.2,21.8,9.9,21.6,9.9z"/>
	<linearGradient id="SVGID_2_" gradientUnits="userSpaceOnUse" x1="16.0125" y1="19.117" x2="16.0125" y2="12.833">
		<stop  offset="0" style="stop-color:#F857A5"/>
		<stop  offset="1" style="stop-color:#FF5859"/>
	</linearGradient>
	<path class="st1" d="M16,19.1c1.8,0,3.2-1.4,3.2-3.1c0-1.7-1.5-3.1-3.2-3.1c-1.8,0-3.2,1.4-3.2,3.1C12.8,17.7,14.2,19.1,16,19.1z"
		/>
	<linearGradient id="SVGID_3_" gradientUnits="userSpaceOnUse" x1="16" y1="22.062" x2="16" y2="14.491">
		<stop  offset="0" style="stop-color:#F857A5"/>
		<stop  offset="1" style="stop-color:#FF5859"/>
	</linearGradient>
	<path class="st2" d="M22.1,14.5l-1.2,0.3c0.1,0.4,0.2,0.9,0.2,1.4c0,2.7-2.2,4.9-5,4.9c-2.8,0-5-2.2-5-4.9c0-0.5,0.1-0.9,0.2-1.4
		l-1.3-0.3v7.1c0,0.4,0.2,0.5,0.5,0.5h11.1c0.4,0,0.5-0.2,0.5-0.5h0V14.5z"/>
	<linearGradient id="SVGID_4_" gradientUnits="userSpaceOnUse" x1="16" y1="32" x2="16" y2="-9.094947e-13">
		<stop  offset="0" style="stop-color:#F857A5"/>
		<stop  offset="1" style="stop-color:#FF5859"/>
	</linearGradient>
	<path class="st3" d="M16,0C7.2,0,0,7.2,0,16c0,8.8,7.2,16,16,16s16-7.2,16-16C32,7.2,24.8,0,16,0z M24.1,22.1c0,1.1-0.9,2-2,2H9.9
		c-1.1,0-2-0.9-2-2V9.9c0-1.1,0.9-2,2-2h12.1c1.1,0,2,0.9,2,2V22.1z"/>
</g>
</svg>
