<?xml version="1.0" encoding="utf-8"?>
<!-- Generator: Adobe Illustrator 22.1.0, SVG Export Plug-In . SVG Version: 6.00 Build 0)  -->
<svg version="1.1" id="Calque_1" xmlns="http://www.w3.org/2000/svg" xmlns:xlink="http://www.w3.org/1999/xlink" x="0px" y="0px"
	 viewBox="0 0 2024 2024" style="enable-background:new 0 0 2024 2024;" xml:space="preserve">
<style type="text/css">
	.st0{fill:none;stroke:#000000;stroke-width:3;stroke-miterlimit:10;}
	.st1{fill:url(#SVGID_1_);}
	.st2{fill:url(#SVGID_2_);}
	.st3{fill:url(#SVGID_3_);}
	.st4{fill:#FFFFFF;}
	.st5{fill:url(#SVGID_4_);}
	.st6{fill:url(#SVGID_5_);}
	.st7{fill:url(#SVGID_6_);}
	.st8{fill:url(#SVGID_7_);}
	.st9{font-family:'ProximaNovaA-Bold';}
	.st10{font-size:122.8581px;}
</style>
<g>
	<g>
		<path d="M269.5,626v57.8v248.8v114.1c0,98.9,80.2,179,179,179s179-80.2,179-179V626c0-98.9-80.2-179-179-179S269.5,527,269.5,626z
			"/>
		<path d="M448.6,1266.8c-121.3,0-220.1-98.7-220.1-220.1V626c0-121.3,98.7-220.1,220.1-220.1S668.5,504.6,668.5,626v420.6
			C668.5,1168,569.9,1266.8,448.6,1266.8z M448.6,488c-76,0-138,62-138,138v420.6c0,76,62,138,138,138s138-62,138-138V626
			C586.5,549.9,524.6,488,448.6,488z"/>
	</g>
	<g>
		<path d="M1577.3,88.9H1479h-465.9H620.9H448.7c-98.9,0-179,80.3-179,179s80.2,179,179,179h172.2H834v566.2v33.4
			c0,98.9,80.2,179,179,179s179-80.2,179-179v-51.4V446.9h290.5h94.7c98.9,0,179-80.2,179-179S1676,88.9,1577.3,88.9z"/>
		<path d="M1013,1266.8c-121.3,0-220.1-98.7-220.1-220.1V488H448.7c-121.3,0-220.1-98.7-220.1-220.1S327.4,48,448.7,48h1128.6
			c121.3,0,220.1,98.7,220.1,220.1s-98.7,220.1-220.1,220.1H1233v558.7C1233,1168,1134.3,1266.8,1013,1266.8z M448.7,130
			c-76,0-138,62-138,138S372.5,406,448.7,406H875v640.7c0,76,62,138,138,138c76,0,138-62,138-138V406h426.3c76,0,138-62,138-138.1
			s-62-138-138-138H448.7z"/>
	</g>
</g>
<path class="st0" d="M627.6,1046.7"/>
<linearGradient id="SVGID_1_" gradientUnits="userSpaceOnUse" x1="448.56" y1="-800.3905" x2="448.56" y2="-1939.9025" gradientTransform="matrix(1 0 0 1 0 2020)">
	<stop  offset="0" style="stop-color:#F857A6"/>
	<stop  offset="1" style="stop-color:#FF5858"/>
</linearGradient>
<path class="st1" d="M627.6,1046.7V626c0-98.9-80.2-179-179-179s-179,80.2-179,179v57.8v248.8v114.1c0,98.9,80.2,179,179,179
	C547.6,1225.7,627.6,1145.6,627.6,1046.7"/>
<linearGradient id="SVGID_2_" gradientUnits="userSpaceOnUse" x1="1012.9701" y1="-800.3905" x2="1012.9701" y2="-1939.9025" gradientTransform="matrix(1 0 0 1 0 2020)">
	<stop  offset="0" style="stop-color:#F857A6"/>
	<stop  offset="1" style="stop-color:#FF5858"/>
</linearGradient>
<path class="st2" d="M834,1046.7c0,98.9,80.2,179,179,179s179-80.2,179-179v-51.4V325.8v-57.8c0-98.9-80.2-179-179-179
	s-179,80.2-179,179v42.5v703V1046.7z"/>
<path class="st0" d="M269.5,626"/>
<path class="st0" d="M448.6,446.9"/>
<linearGradient id="SVGID_3_" gradientUnits="userSpaceOnUse" x1="1012.9702" y1="-786.6956" x2="1012.9702" y2="-1942.6055" gradientTransform="matrix(1 0 0 1 0 2020)">
	<stop  offset="0" style="stop-color:#F857A6"/>
	<stop  offset="1" style="stop-color:#FF5858"/>
</linearGradient>
<path class="st3" d="M1577.3,446.9c98.9,0,179-80.2,179-179s-80.2-179-179-179H1479h-465.9H620.9H448.7c-98.9,0-179,80.3-179,179
	s80.2,179,179,179h172.2H1013h469.5H1577.3z"/>
<path class="st4" d="M834,267.9c0-98.9,80.2-179,179-179s179,80.2,179,179v179H834L834,267.9L834,267.9z"/>
<circle class="st4" cx="448.6" cy="267.9" r="179"/>
<g>
	<path d="M3.1,1565.2H49v225.4H3.1V1565.2z"/>
	<path d="M71.7,1565.2H117v179.9h96.2v45.3H71.7V1565.2L71.7,1565.2z"/>
	<path d="M232.1,1565.2h45.3v179.9h96.2v45.3H232.1V1565.2z"/>
	<path d="M392.2,1721.5v-156.4h47.6v156.4c0,9.3,3.4,16.6,10.1,21.8c6.6,5.2,14.7,7.7,24,7.7c9.3,0,17.4-2.5,24-7.7
		c6.6-5.2,10.1-12.4,10.1-21.8v-156.4h47.6v156.4c0,23.6-8,41.9-24,55.1c-16.1,13-35.2,19.7-57.7,19.7c-22.5,0-41.6-6.6-57.7-19.7
		C400.2,1763.4,392.2,1745.1,392.2,1721.5z"/>
	<path d="M567.6,1790.4v-45.3c22.1,0,35.8-6.6,41.6-19.7c5.5-13,8.4-33.2,8.4-60.1c0-34.7,3.4-60.3,10.2-76.8
		c6.8-16.5,25.9-24.7,57.3-24.7v52.1c-10.6,0-17.4,4.1-20.4,12.1c-3.1,8.3-4.5,20.9-4.5,38.5v20.8c0,32-5.7,57.3-17,75.5
		C631.8,1781.2,606.5,1790.4,567.6,1790.4z"/>
	<path d="M701.8,1610.5v-45.3h152.3v45.3h-52.7v179.9h-45.2v-179.9H701.8z"/>
	<path d="M1042.7,1790.4h-50.9c0.5-1.3-3.2-11.2-11.2-30.5c-8.3-19-16.5-38.3-24.9-57.7h-33.4v-45.2h39c10.6,0,19-2.3,24.9-7.1
		c6.1-4.6,9.2-10.2,9.2-16.3c0-6.5-2.8-11.9-8.8-16.5c-5.9-4.6-14.3-6.8-25.3-6.8h-54.7v179.9h-45.3l-0.5-225.4h95.6
		c32.5,0,56,6.3,70,19c14.2,12.6,21.2,28.3,21.2,46.7c0,10.2-1.9,19.9-5.9,28.8c-4,8.9-8.9,15.1-15.1,18.1
		c-6.1,3.2-11.1,5.9-15.1,8.4c-2.7,2.7-5.4,5.4-7.7,8.3c0.9,0.5,7.4,16.8,19.5,48.5C1035.3,1774.5,1041.8,1790.4,1042.7,1790.4z"/>
	<path d="M1172.5,1758.7h-56.8l-8.6,31.6h-48l49.4-183.1c4.3-17.6,8.9-29,14.2-34.2c5.2-5.4,12.1-7.9,21.3-7.9
		c14.2,0,23.2,4.3,27.2,13c4,8.8,7.4,18.5,10.1,29l49,183.1h-49L1172.5,1758.7z M1128.6,1713.4l31.4-0.1l-16.1-56.5L1128.6,1713.4z"
		/>
</g>
<g>
	
		<linearGradient id="SVGID_4_" gradientUnits="userSpaceOnUse" x1="1324.6671" y1="-225.0044" x2="1324.6671" y2="-459.7616" gradientTransform="matrix(1 0 0 1 0 2020)">
		<stop  offset="0" style="stop-color:#F857A6"/>
		<stop  offset="1" style="stop-color:#FF5858"/>
	</linearGradient>
	<path class="st5" d="M1248.5,1610.5v-45.3h152.3v45.3h-52.7v179.9h-45.3v-179.9H1248.5z"/>
	
		<linearGradient id="SVGID_5_" gradientUnits="userSpaceOnUse" x1="1484.3875" y1="-225.0044" x2="1484.3875" y2="-459.7616" gradientTransform="matrix(1 0 0 1 0 2020)">
		<stop  offset="0" style="stop-color:#F857A6"/>
		<stop  offset="1" style="stop-color:#FF5858"/>
	</linearGradient>
	<path class="st6" d="M1454,1658.9h63.5v-93.8h44v225.4h-44v-86H1454v86.1h-46.2l-0.5-225.4h46.7L1454,1658.9L1454,1658.9z"/>
	
		<linearGradient id="SVGID_6_" gradientUnits="userSpaceOnUse" x1="1706.1248" y1="-225.0044" x2="1706.1248" y2="-459.7616" gradientTransform="matrix(1 0 0 1 0 2020)">
		<stop  offset="0" style="stop-color:#F857A6"/>
		<stop  offset="1" style="stop-color:#FF5858"/>
	</linearGradient>
	<path class="st7" d="M1788,1598.6c22.3,22.3,33.4,49.6,33.4,81.6c0,31.6-11.5,59.1-34.2,81.8c-23,23-49.6,34.2-80.5,34.2
		c-30.8,0-57.8-11.6-81.1-34.8c-23.2-23.2-34.8-50.7-34.8-82c0-14.8,2.8-29,8.4-42.5c5.5-13.4,14.2-25.8,25.4-37.2
		c11.2-11.2,24.1-19.9,38.3-25.4c14.2-5.5,28.8-8.4,44-8.4c15.1,0,29.7,2.8,44,8.4C1765.2,1580,1777.6,1588,1788,1598.6z
		 M1755.5,1630.9c-14.2-13.6-30.6-20.4-49.4-20.4c-18.8,0-33.4,5.4-44.3,16.1c-10.8,10.7-17.9,20.3-21.3,28.7
		c-3.4,8.3-5.2,16.5-5.2,24.7c0,10.1,1.9,19.1,6.1,27.6c4.1,8.4,11.2,17.7,21.8,27.6c10.3,10.1,25,15.1,43.6,15.1
		c9.3,0,17.9-1.5,25.8-4.8c7.9-3.2,15.7-8.8,23.6-16.5c7.9-7.9,13.6-15.7,17.2-23.7c3.6-8,5.4-16.3,5.4-24.7
		C1779,1662.4,1771.1,1645.8,1755.5,1630.9z"/>
	
		<linearGradient id="SVGID_7_" gradientUnits="userSpaceOnUse" x1="1928.6361" y1="-225.0044" x2="1928.6361" y2="-459.7616" gradientTransform="matrix(1 0 0 1 0 2020)">
		<stop  offset="0" style="stop-color:#F857A6"/>
		<stop  offset="1" style="stop-color:#FF5858"/>
	</linearGradient>
	<path class="st8" d="M2017.6,1790.4h-50.9c0.5-1.3-3.2-11.2-11.2-30.5c-8.3-19-16.5-38.3-24.9-57.7h-33.4v-45.2h39
		c10.6,0,18.8-2.3,24.9-7.1c6.1-4.6,9.2-10.2,9.2-16.3c0-6.5-2.8-11.9-8.8-16.5c-5.9-4.6-14.3-6.8-25.3-6.8h-54.7v179.9h-45.7
		l-0.5-225.4h95.6c32.5,0,56,6.3,70,19c13.9,12.6,21.2,28.3,21.2,46.7c0,10.2-1.9,19.9-5.9,28.8c-4,8.9-8.9,15.1-15.1,18.1
		c-6.1,3.2-11.1,5.9-15.1,8.4c-2.7,2.7-5.4,5.4-7.7,8.3c0.9,0.5,7.4,16.8,19.5,48.5C2010,1774.5,2016.5,1790.4,2017.6,1790.4z"/>
</g>
<text transform="matrix(1 0 0 1 420.0596 1967.5508)" class="st9 st10">GRAPHIC DESIGNER</text>
</svg>
