<?xml version="1.0" encoding="utf-8"?>
<!-- Generator: Adobe Illustrator 22.1.0, SVG Export Plug-In . SVG Version: 6.00 Build 0)  -->
<svg version="1.1" id="Layer_1" xmlns="http://www.w3.org/2000/svg" xmlns:xlink="http://www.w3.org/1999/xlink" x="0px" y="0px"
	 viewBox="0 0 24 24" style="enable-background:new 0 0 24 24;" xml:space="preserve">
<style type="text/css">
	.st0{fill:#FFFFFF;}
</style>
<g>
	<path class="st0" d="M23.7,19.5l-6.6-6.6C17.7,11.7,18,10.4,18,9c0-5-4-9-9-9S0,4,0,9s4,9,9,9c1.4,0,2.7-0.3,3.9-0.9l6.6,6.6
		c0.4,0.4,1,0.4,1.4,0l2.8-2.8C24.1,20.5,24.1,19.9,23.7,19.5z M9,16c-3.9,0-7-3.1-7-7s3.1-7,7-7s7,3.1,7,7S12.9,16,9,16z M14.6,16
		c0.5-0.4,1-0.9,1.4-1.4l3.4,3.4L18,19.4L14.6,16z M20.2,21.6l-1.4-1.4l1.4-1.4l1.4,1.4L20.2,21.6z"/>
	<polygon class="st0" points="10,5 8,5 8,8 5,8 5,10 8,10 8,13 10,13 10,10 13,10 13,8 10,8 	"/>
</g>
</svg>
